<svg width="19" height="19" viewBox="0 0 19 19" fill="none" xmlns="http://www.w3.org/2000/svg">
<g clip-path="url(#clip0_5_132)">
<path d="M10.9486 3.73988C10.9486 3.57988 10.8986 3.44988 10.7986 3.34988C10.6986 3.24988 10.5686 3.19988 10.4086 3.19988H4.76859C4.60859 3.19988 4.47859 3.24988 4.37859 3.34988C4.27859 3.44988 4.22859 3.57988 4.22859 3.73988V8.23988C4.22859 8.39988 4.27859 8.53988 4.37859 8.65988C4.47859 8.77988 4.60859 8.83988 4.76859 8.83988H10.4086C10.5686 8.83988 10.6986 8.77988 10.7986 8.65988C10.8986 8.53988 10.9486 8.39988 10.9486 8.23988V3.73988ZM9.80859 7.69988H5.30859V4.33988H9.80859V7.69988ZM17.4286 4.33988L15.1486 3.25988C15.0286 3.17988 14.8886 3.15988 14.7286 3.19988C14.5686 3.23988 14.4586 3.32988 14.3986 3.46988C14.3386 3.60988 14.3286 3.75988 14.3686 3.91988C14.4086 4.07988 14.5086 4.17988 14.6686 4.21988L15.5086 4.69988L15.4486 4.87988C15.4486 5.23988 15.5586 5.55988 15.7786 5.83988C15.9986 6.11988 16.2686 6.31988 16.5886 6.43988V13.2799C16.5886 13.4399 16.5286 13.5799 16.4086 13.6999C16.2886 13.8199 16.1586 13.8799 16.0186 13.8799C15.8786 13.8799 15.7486 13.8199 15.6286 13.6999C15.5086 13.5799 15.4486 13.4399 15.4486 13.2799V8.77988C15.4486 8.13988 15.2186 7.55988 14.7586 7.03988C14.2986 6.51988 13.7886 6.19988 13.2286 6.07988V2.59988C13.2286 1.99988 13.0086 1.47988 12.5686 1.03988C12.1286 0.599884 11.6086 0.379883 11.0086 0.379883H4.22859C3.62859 0.379883 3.09859 0.599884 2.63859 1.03988C2.17859 1.47988 1.94859 1.99988 1.94859 2.59988V15.1999L1.16859 15.6199C0.928594 15.7399 0.808594 15.8999 0.808594 16.0999V17.7799C0.808594 17.9399 0.868594 18.0799 0.988594 18.1999C1.10859 18.3199 1.24859 18.3799 1.40859 18.3799H13.7686C13.9286 18.3799 14.0586 18.3199 14.1586 18.1999C14.2586 18.0799 14.3086 17.9399 14.3086 17.7799V16.0999C14.3086 15.8999 14.2086 15.7399 14.0086 15.6199L13.2286 15.1999V7.21988C13.5086 7.33988 13.7586 7.54988 13.9786 7.84988C14.1986 8.14988 14.3086 8.45988 14.3086 8.77988V13.2799C14.3086 13.7599 14.4786 14.1699 14.8186 14.5099C15.1586 14.8499 15.5586 15.0199 16.0186 15.0199C16.4786 15.0199 16.8786 14.8499 17.2186 14.5099C17.5586 14.1699 17.7286 13.7599 17.7286 13.2799V4.87988C17.7286 4.63988 17.6286 4.45988 17.4286 4.33988ZM13.2286 17.2399H1.94859V16.4599L2.78859 16.0399C2.98859 15.9599 3.08859 15.7999 3.08859 15.5599V2.59988C3.08859 2.31988 3.19859 2.06988 3.41859 1.84988C3.63859 1.62988 3.90859 1.51988 4.22859 1.51988H11.0086C11.2886 1.51988 11.5386 1.62988 11.7586 1.84988C11.9786 2.06988 12.0886 2.31988 12.0886 2.59988V15.5599C12.0886 15.7999 12.1886 15.9599 12.3886 16.0399L13.2286 16.4599V17.2399Z" fill="#050B20"/>
</g>
<defs>
<clipPath id="clip0_5_132">
<rect width="18" height="18" fill="white" transform="matrix(1 0 0 -1 0.269531 18.3799)"/>
</clipPath>
</defs>
</svg>
