<svg width="19" height="19" viewBox="0 0 19 19" fill="none" xmlns="http://www.w3.org/2000/svg">
<path d="M3.89156 2.05995C3.33156 2.05995 2.85156 2.25995 2.45156 2.65995C2.05156 3.05995 1.85156 3.54995 1.85156 4.12995C1.85156 4.70995 2.05156 5.19995 2.45156 5.59995C2.85156 5.99995 3.33156 6.19995 3.89156 6.19995C4.45156 6.19995 4.93156 5.99995 5.33156 5.59995C5.73156 5.19995 5.93156 4.70995 5.93156 4.12995C5.93156 3.54995 5.73156 3.05995 5.33156 2.65995C4.93156 2.25995 4.45156 2.05995 3.89156 2.05995ZM3.89156 3.19995C4.13156 3.19995 4.35156 3.28995 4.55156 3.46995C4.75156 3.64995 4.85156 3.86995 4.85156 4.12995C4.85156 4.38995 4.75156 4.60995 4.55156 4.78995C4.35156 4.96995 4.13156 5.05995 3.89156 5.05995C3.65156 5.05995 3.43156 4.96995 3.23156 4.78995C3.03156 4.60995 2.93156 4.38995 2.93156 4.12995C2.93156 3.86995 3.03156 3.64995 3.23156 3.46995C3.43156 3.28995 3.65156 3.19995 3.89156 3.19995ZM3.89156 12.56C3.33156 12.56 2.85156 12.76 2.45156 13.16C2.05156 13.56 1.85156 14.05 1.85156 14.63C1.85156 15.21 2.05156 15.7 2.45156 16.1C2.85156 16.5 3.33156 16.7 3.89156 16.7C4.45156 16.7 4.93156 16.5 5.33156 16.1C5.73156 15.7 5.93156 15.21 5.93156 14.63C5.93156 14.05 5.73156 13.56 5.33156 13.16C4.93156 12.76 4.45156 12.56 3.89156 12.56ZM3.89156 13.7C4.13156 13.7 4.35156 13.79 4.55156 13.97C4.75156 14.15 4.85156 14.37 4.85156 14.63C4.85156 14.89 4.75156 15.11 4.55156 15.29C4.35156 15.47 4.13156 15.56 3.89156 15.56C3.65156 15.56 3.43156 15.47 3.23156 15.29C3.03156 15.11 2.93156 14.89 2.93156 14.63C2.93156 14.37 3.03156 14.15 3.23156 13.97C3.43156 13.79 3.65156 13.7 3.89156 13.7ZM9.89156 2.05995C9.33156 2.05995 8.85156 2.25995 8.45156 2.65995C8.05156 3.05995 7.85156 3.54995 7.85156 4.12995C7.85156 4.70995 8.05156 5.19995 8.45156 5.59995C8.85156 5.99995 9.33156 6.19995 9.89156 6.19995C10.4516 6.19995 10.9316 5.99995 11.3316 5.59995C11.7316 5.19995 11.9316 4.70995 11.9316 4.12995C11.9316 3.54995 11.7316 3.05995 11.3316 2.65995C10.9316 2.25995 10.4516 2.05995 9.89156 2.05995ZM9.89156 3.19995C10.1316 3.19995 10.3516 3.28995 10.5516 3.46995C10.7516 3.64995 10.8516 3.86995 10.8516 4.12995C10.8516 4.38995 10.7516 4.60995 10.5516 4.78995C10.3516 4.96995 10.1316 5.05995 9.89156 5.05995C9.65156 5.05995 9.43156 4.96995 9.23156 4.78995C9.03156 4.60995 8.93156 4.38995 8.93156 4.12995C8.93156 3.86995 9.03156 3.64995 9.23156 3.46995C9.43156 3.28995 9.65156 3.19995 9.89156 3.19995ZM9.89156 12.56C9.33156 12.56 8.85156 12.76 8.45156 13.16C8.05156 13.56 7.85156 14.05 7.85156 14.63C7.85156 15.21 8.05156 15.7 8.45156 16.1C8.85156 16.5 9.33156 16.7 9.89156 16.7C10.4516 16.7 10.9316 16.5 11.3316 16.1C11.7316 15.7 11.9316 15.21 11.9316 14.63C11.9316 14.05 11.7316 13.56 11.3316 13.16C10.9316 12.76 10.4516 12.56 9.89156 12.56ZM9.89156 13.7C10.1316 13.7 10.3516 13.79 10.5516 13.97C10.7516 14.15 10.8516 14.37 10.8516 14.63C10.8516 14.89 10.7516 15.11 10.5516 15.29C10.3516 15.47 10.1316 15.56 9.89156 15.56C9.65156 15.56 9.43156 15.47 9.23156 15.29C9.03156 15.11 8.93156 14.89 8.93156 14.63C8.93156 14.37 9.03156 14.15 9.23156 13.97C9.43156 13.79 9.65156 13.7 9.89156 13.7ZM15.8916 2.05995C15.3316 2.05995 14.8516 2.25995 14.4516 2.65995C14.0516 3.05995 13.8516 3.54995 13.8516 4.12995C13.8516 4.70995 14.0516 5.19995 14.4516 5.59995C14.8516 5.99995 15.3316 6.19995 15.8916 6.19995C16.4516 6.19995 16.9316 5.99995 17.3316 5.59995C17.7316 5.19995 17.9316 4.70995 17.9316 4.12995C17.9316 3.54995 17.7316 3.05995 17.3316 2.65995C16.9316 2.25995 16.4516 2.05995 15.8916 2.05995ZM15.8916 3.19995C16.1316 3.19995 16.3516 3.28995 16.5516 3.46995C16.7516 3.64995 16.8516 3.86995 16.8516 4.12995C16.8516 4.38995 16.7516 4.60995 16.5516 4.78995C16.3516 4.96995 16.1316 5.05995 15.8916 5.05995C15.6516 5.05995 15.4316 4.96995 15.2316 4.78995C15.0316 4.60995 14.9316 4.38995 14.9316 4.12995C14.9316 3.86995 15.0316 3.64995 15.2316 3.46995C15.4316 3.28995 15.6516 3.19995 15.8916 3.19995ZM15.8916 12.56C15.3316 12.56 14.8516 12.76 14.4516 13.16C14.0516 13.56 13.8516 14.05 13.8516 14.63C13.8516 15.21 14.0516 15.7 14.4516 16.1C14.8516 16.5 15.3316 16.7 15.8916 16.7C16.4516 16.7 16.9316 16.5 17.3316 16.1C17.7316 15.7 17.9316 15.21 17.9316 14.63C17.9316 14.05 17.7316 13.56 17.3316 13.16C16.9316 12.76 16.4516 12.56 15.8916 12.56ZM15.8916 13.7C16.1316 13.7 16.3516 13.79 16.5516 13.97C16.7516 14.15 16.8516 14.37 16.8516 14.63C16.8516 14.89 16.7516 15.11 16.5516 15.29C16.3516 15.47 16.1316 15.56 15.8916 15.56C15.6516 15.56 15.4316 15.47 15.2316 15.29C15.0316 15.11 14.9316 14.89 14.9316 14.63C14.9316 14.37 15.0316 14.15 15.2316 13.97C15.4316 13.79 15.6516 13.7 15.8916 13.7ZM3.35156 5.59995V13.1C3.35156 13.26 3.40156 13.4 3.50156 13.52C3.60156 13.64 3.73156 13.7 3.89156 13.7C4.05156 13.7 4.18156 13.64 4.28156 13.52C4.38156 13.4 4.43156 13.28 4.43156 13.16V5.59995C4.43156 5.47995 4.38156 5.35995 4.28156 5.23995C4.18156 5.11995 4.05156 5.05995 3.89156 5.05995C3.73156 5.05995 3.60156 5.11995 3.50156 5.23995C3.40156 5.35995 3.35156 5.47995 3.35156 5.59995ZM9.35156 5.59995V13.1C9.35156 13.26 9.40156 13.4 9.50156 13.52C9.60156 13.64 9.73156 13.7 9.89156 13.7C10.0516 13.7 10.1816 13.64 10.2816 13.52C10.3816 13.4 10.4316 13.28 10.4316 13.16V5.59995C10.4316 5.47995 10.3816 5.35995 10.2816 5.23995C10.1816 5.11995 10.0516 5.05995 9.89156 5.05995C9.73156 5.05995 9.60156 5.11995 9.50156 5.23995C9.40156 5.35995 9.35156 5.47995 9.35156 5.59995ZM15.3516 5.59995V8.59995C15.3516 8.67995 15.3316 8.73995 15.2916 8.77995C15.2516 8.81995 15.2116 8.83995 15.1716 8.83995H3.89156C3.73156 8.83995 3.60156 8.88995 3.50156 8.98995C3.40156 9.08995 3.35156 9.21995 3.35156 9.37995C3.35156 9.53995 3.40156 9.66995 3.50156 9.76995C3.60156 9.86995 3.73156 9.91995 3.89156 9.91995H15.1716C15.5316 9.91995 15.8316 9.79995 16.0716 9.55995C16.3116 9.31995 16.4316 8.99995 16.4316 8.59995V5.65995C16.4316 5.49995 16.3816 5.35995 16.2816 5.23995C16.1816 5.11995 16.0516 5.05995 15.8916 5.05995C15.7316 5.05995 15.6016 5.11995 15.5016 5.23995C15.4016 5.35995 15.3516 5.47995 15.3516 5.59995Z" fill="#050B20"/>
</svg>
