<svg width="383" height="292" viewBox="0 0 383 292" fill="none" xmlns="http://www.w3.org/2000/svg">
<ellipse cx="91.7133" cy="226.766" rx="30.2167" ry="24.8511" fill="url(#paint0_linear_429_4271)"/>
<ellipse cx="225.023" cy="267.149" rx="24.8844" ry="24.8511" fill="url(#paint1_linear_429_4271)"/>
<ellipse cx="19.7755" cy="26.0244" rx="19.7755" ry="26.0244" transform="matrix(0.902691 -0.430289 0.52955 0.848279 303.23 225.146)" fill="url(#paint2_linear_429_4271)"/>
<ellipse cx="161.034" cy="146" rx="39.104" ry="31.0638" fill="url(#paint3_linear_429_4271)"/>
<path d="M287.879 142.336C302.247 156.369 304.614 175.001 293.165 183.953C281.715 192.904 260.786 188.785 246.418 174.753C232.05 160.72 229.683 142.088 241.133 133.136C252.582 124.185 273.511 128.304 287.879 142.336Z" fill="url(#paint4_linear_429_4271)"/>
<ellipse cx="41.3773" cy="25.8392" rx="41.3773" ry="25.8392" transform="matrix(0.952283 0.305218 -0.387037 0.922064 180.438 51.3464)" fill="url(#paint5_linear_429_4271)"/>
<ellipse cx="114.82" cy="74.5531" rx="31.9942" ry="18.6383" fill="url(#paint6_linear_429_4271)"/>
<ellipse cx="24.8313" cy="12.4601" rx="24.8313" ry="12.4601" transform="matrix(0.993069 -0.117534 0.15317 0.9882 13.5991 52.7334)" fill="url(#paint7_linear_429_4271)"/>
<ellipse cx="24.3651" cy="14.0697" rx="24.3651" ry="14.0697" transform="matrix(0.970181 -0.242383 0.310966 0.950421 0 123.641)" fill="url(#paint8_linear_429_4271)"/>
<ellipse cx="11.2536" cy="18.2777" rx="11.2536" ry="18.2777" transform="matrix(0.771216 -0.636573 0.734069 0.679075 338.779 157.221)" fill="url(#paint9_linear_429_4271)"/>
<ellipse cx="16.2035" cy="28.3277" rx="16.2035" ry="28.3277" transform="matrix(0.635744 -0.7719 0.846515 0.532364 257.017 96.4617)" fill="url(#paint10_linear_429_4271)"/>
<ellipse cx="9.18344" cy="18.2126" rx="9.18344" ry="18.2126" transform="matrix(0.694334 -0.719653 0.805106 0.593131 324.56 100.197)" fill="url(#paint11_linear_429_4271)"/>
<ellipse cx="5.00906" cy="11.4639" rx="5.00906" ry="11.4639" transform="matrix(0.48513 -0.874442 0.920787 0.390067 292.566 60.6548)" fill="url(#paint12_linear_429_4271)"/>
<ellipse cx="22.5183" cy="11.8837" rx="22.5183" ry="11.8837" transform="matrix(0.925593 0.37852 -0.472122 0.881533 225.579 31.064)" fill="url(#paint13_linear_429_4271)"/>
<ellipse cx="13.9752" cy="6.34992" rx="13.9752" ry="6.34992" transform="matrix(0.941291 0.337597 -0.42514 0.905128 248.196 18.6384)" fill="url(#paint14_linear_429_4271)"/>
<ellipse cx="25.0797" cy="13.2768" rx="25.0797" ry="13.2768" transform="matrix(0.976246 0.216666 -0.279105 0.960261 147.116 21.0969)" fill="url(#paint15_linear_429_4271)"/>
<ellipse cx="9.13279" cy="4.83569" rx="9.13279" ry="4.83569" transform="matrix(0.96215 0.27252 -0.347783 0.937575 195.727 5.4165)" fill="url(#paint16_linear_429_4271)"/>
<ellipse cx="14.6595" cy="6.76326" rx="14.6595" ry="6.76326" transform="matrix(0.983314 0.181915 -0.23547 0.971882 132.225 0)" fill="url(#paint17_linear_429_4271)"/>
<ellipse cx="14.3886" cy="7.49111" rx="14.3886" ry="7.49111" transform="matrix(0.995803 0.0915239 -0.119505 0.992834 75.499 15.3477)" fill="url(#paint18_linear_429_4271)"/>
<defs>
<linearGradient id="paint0_linear_429_4271" x1="61.4966" y1="205.241" x2="124.624" y2="243.891" gradientUnits="userSpaceOnUse">
<stop stop-color="#08F899"/>
<stop offset="0.46" stop-color="#00E3C9"/>
<stop offset="1" stop-color="#01D1F1"/>
</linearGradient>
<linearGradient id="paint1_linear_429_4271" x1="200.138" y1="245.624" x2="257.126" y2="274.358" gradientUnits="userSpaceOnUse">
<stop stop-color="#08F899"/>
<stop offset="0.46" stop-color="#00E3C9"/>
<stop offset="1" stop-color="#01D1F1"/>
</linearGradient>
<linearGradient id="paint2_linear_429_4271" x1="-1.0532e-07" y1="3.48283" x2="49.5471" y2="22.4412" gradientUnits="userSpaceOnUse">
<stop stop-color="#08F899"/>
<stop offset="0.46" stop-color="#00E3C9"/>
<stop offset="1" stop-color="#01D1F1"/>
</linearGradient>
<linearGradient id="paint3_linear_429_4271" x1="121.93" y1="119.093" x2="202.055" y2="169.882" gradientUnits="userSpaceOnUse">
<stop stop-color="#08F899"/>
<stop offset="0.46" stop-color="#00E3C9"/>
<stop offset="1" stop-color="#01D1F1"/>
</linearGradient>
<linearGradient id="paint4_linear_429_4271" x1="223.884" y1="152.745" x2="290.654" y2="121.762" gradientUnits="userSpaceOnUse">
<stop stop-color="#08F899"/>
<stop offset="0.46" stop-color="#00E3C9"/>
<stop offset="1" stop-color="#01D1F1"/>
</linearGradient>
<linearGradient id="paint5_linear_429_4271" x1="-2.20367e-07" y1="3.45804" x2="72.0211" y2="61.5318" gradientUnits="userSpaceOnUse">
<stop stop-color="#08F899"/>
<stop offset="0.46" stop-color="#00E3C9"/>
<stop offset="1" stop-color="#01D1F1"/>
</linearGradient>
<linearGradient id="paint6_linear_429_4271" x1="82.8262" y1="58.4091" x2="135.425" y2="103.874" gradientUnits="userSpaceOnUse">
<stop stop-color="#08F899"/>
<stop offset="0.46" stop-color="#00E3C9"/>
<stop offset="1" stop-color="#01D1F1"/>
</linearGradient>
<linearGradient id="paint7_linear_429_4271" x1="-1.32246e-07" y1="1.66753" x2="35.5373" y2="37.3289" gradientUnits="userSpaceOnUse">
<stop stop-color="#08F899"/>
<stop offset="0.46" stop-color="#00E3C9"/>
<stop offset="1" stop-color="#01D1F1"/>
</linearGradient>
<linearGradient id="paint8_linear_429_4271" x1="-1.29763e-07" y1="1.88293" x2="39.7546" y2="36.5493" gradientUnits="userSpaceOnUse">
<stop stop-color="#08F899"/>
<stop offset="0.46" stop-color="#00E3C9"/>
<stop offset="1" stop-color="#01D1F1"/>
</linearGradient>
<linearGradient id="paint9_linear_429_4271" x1="-5.99345e-08" y1="2.4461" x2="29.4894" y2="11.5888" gradientUnits="userSpaceOnUse">
<stop stop-color="#08F899"/>
<stop offset="0.46" stop-color="#00E3C9"/>
<stop offset="1" stop-color="#01D1F1"/>
</linearGradient>
<linearGradient id="paint10_linear_429_4271" x1="-8.62966e-08" y1="3.79108" x2="42.9762" y2="16.1694" gradientUnits="userSpaceOnUse">
<stop stop-color="#08F899"/>
<stop offset="0.46" stop-color="#00E3C9"/>
<stop offset="1" stop-color="#01D1F1"/>
</linearGradient>
<linearGradient id="paint11_linear_429_4271" x1="-4.89091e-08" y1="2.43738" x2="24.7802" y2="8.72918" gradientUnits="userSpaceOnUse">
<stop stop-color="#08F899"/>
<stop offset="0.46" stop-color="#00E3C9"/>
<stop offset="1" stop-color="#01D1F1"/>
</linearGradient>
<linearGradient id="paint12_linear_429_4271" x1="-2.66772e-08" y1="1.5342" x2="13.7232" y2="4.55358" gradientUnits="userSpaceOnUse">
<stop stop-color="#08F899"/>
<stop offset="0.46" stop-color="#00E3C9"/>
<stop offset="1" stop-color="#01D1F1"/>
</linearGradient>
<linearGradient id="paint13_linear_429_4271" x1="-1.19928e-07" y1="1.59039" x2="33.8562" y2="33.8946" gradientUnits="userSpaceOnUse">
<stop stop-color="#08F899"/>
<stop offset="0.46" stop-color="#00E3C9"/>
<stop offset="1" stop-color="#01D1F1"/>
</linearGradient>
<linearGradient id="paint14_linear_429_4271" x1="-7.44289e-08" y1="0.849806" x2="18.0154" y2="20.8148" gradientUnits="userSpaceOnUse">
<stop stop-color="#08F899"/>
<stop offset="0.46" stop-color="#00E3C9"/>
<stop offset="1" stop-color="#01D1F1"/>
</linearGradient>
<linearGradient id="paint15_linear_429_4271" x1="-1.33569e-07" y1="1.77683" x2="37.8194" y2="37.7501" gradientUnits="userSpaceOnUse">
<stop stop-color="#08F899"/>
<stop offset="0.46" stop-color="#00E3C9"/>
<stop offset="1" stop-color="#01D1F1"/>
</linearGradient>
<linearGradient id="paint16_linear_429_4271" x1="-4.86393e-08" y1="0.647158" x2="13.7745" y2="13.7467" gradientUnits="userSpaceOnUse">
<stop stop-color="#08F899"/>
<stop offset="0.46" stop-color="#00E3C9"/>
<stop offset="1" stop-color="#01D1F1"/>
</linearGradient>
<linearGradient id="paint17_linear_429_4271" x1="-7.80734e-08" y1="0.905124" x2="19.2159" y2="21.8781" gradientUnits="userSpaceOnUse">
<stop stop-color="#08F899"/>
<stop offset="0.46" stop-color="#00E3C9"/>
<stop offset="1" stop-color="#01D1F1"/>
</linearGradient>
<linearGradient id="paint18_linear_429_4271" x1="-7.66306e-08" y1="1.00253" x2="21.3535" y2="21.6553" gradientUnits="userSpaceOnUse">
<stop stop-color="#08F899"/>
<stop offset="0.46" stop-color="#00E3C9"/>
<stop offset="1" stop-color="#01D1F1"/>
</linearGradient>
</defs>
</svg>
